<svg xmlns="http://www.w3.org/2000/svg" height="96" width="96" viewBox="0 0 96 96"><g transform="matrix(1.402302 0 0 1.402302 1.0228856 1.022878)"><path d="M8.3 51.7H20v5.1c0 0.2 0.1 0.4 0.3 0.4 0.1 0 0.2 0.1 0.2 0.1 0.1 0 0.2 0 0.3-0.1l8.1-5.5h11.8c0 0 0 0 0 0v1c0 1.5-1.2 2.8-2.7 2.8-1.5 0-2.9 0.6-3.9 1.6-1 1.1-1.6 2.4-1.6 3.9v4.1c0 0.3 0.2 0.5 0.5 0.5h25.2c0.3 0 0.5-0.2 0.5-0.5v-4.1c0-3-2.5-5.5-5.5-5.5-0.7 0-1.4-0.3-1.9-0.8-1.1-1.1-0.7-2.4-0.8-2.9 0 0 0 0 0 0h8.3c0.3 0 0.5-0.2 0.5-0.5v-15.8c0-0.3-0.2-0.5-0.5-0.5H8.3c-0.3 0-0.5 0.2-0.5 0.5v15.8c0 0.3 0.2 0.5 0.5 0.5zM45 38.5c0 0 0 0 0 0 2.3-0.2 4.6 1.2 5.8 3.9-1.2-0.1-2.5-0.5-3.7-1.3-0.2-0.1-0.5-0.1-0.7 0.1 0 0.1-0.1 0.1-0.1 0.2-1.9 2.3-4.6 3.6-6.8 3.2 0.4-3.2 2.6-5.9 5.5-6.2zm-5.6 7.2c2.8 0.4 5.7-1.3 7.5-3.5 1.4 0.8 2.9 1.2 4.2 1.2 1.3 4.8-1.5 9.2-5.2 9.6-3.9 0.2-6.5-3.4-6.5-7.3 0 0 0-0.1 0-0.1zm2.1 7.9c0.1-0.5 0.1-0.7 0.1-0.8 1.5 1.1 2.8 1.4 4.3 1.3 1.5-0.2 2.7-0.8 2.7-0.9 0.2-0.1 0.4-0.2 0.5-0.4 0 0.1 0 1.4 0 1.3 0 2.1-1.7 3.8-3.8 3.8-2.1 0-3.9-1.7-3.9-3.8V53.5Zm11.5 3c2.5 0 4.5 2 4.5 4.5v3.6H33.4V61c0-1.2 0.5-2.3 1.3-3.2 0.9-0.9 2-1.3 3.2-1.3 1.1 0 2.1-0.5 2.8-1.3 0.5 2.1 2.4 3.7 4.7 3.7 2.3 0 4.2-1.6 4.7-3.7 0.8 1 1.8 1.4 2.9 1.4zM8.8 35.9H58.1v14.8h-7.1c1-1.5 1.4-3.3 1.4-5 0-4.2-2.9-8.2-7-8.3-0.2 0-0.4 0-0.5 0-3.9 0.3-6.6 4.1-6.6 8.3 0 1.8 0.5 3.6 1.4 5H28.7c-0.1 0-0.2 0-0.3 0.1l-7.5 5.1v-4.7c0-0.3-0.2-0.5-0.5-0.5H8.8Z"/><path d="m11.2 46.7h6.9v-6.9h-6.9zm1-5.9h4.9v4.9h-4.9z"/><path d="m27.5 39.8h-6.9v6.9h6.9zm-1 5.9h-4.9v-4.9h4.9z"/><path d="m36.9 39.8h-6.9v6.9h6.9zm-1 5.9h-4.9v-4.9h4.9z"/><path d="m8.4 18.2h8.3c0 0 0 0 0 0-0.1 0.6 0.3 1.8-0.8 2.9-0.5 0.5-1.2 0.8-1.9 0.8-3 0-5.5 2.5-5.5 5.5v4.1c0 0.3 0.2 0.5 0.5 0.5H34.1c0.3 0 0.5-0.2 0.5-0.5V27.5c0-3.1-2.5-5.5-5.5-5.5-1.5 0-2.8-1.2-2.8-2.8v-1c0 0 0 0 0 0h11.4v5.1c0 0.2 0.1 0.4 0.3 0.4 0.2 0.1 0.4 0.1 0.5 0l8.1-5.5h12c0.3 0 0.5-0.2 0.5-0.5V1.9c0-0.3-0.2-0.5-0.5-0.5H8.4c-0.3 0-0.5 0.2-0.5 0.5V17.7c0 0.3 0.2 0.5 0.5 0.5zM21.9 5c0 0 0 0 0 0 3 0.3 5.1 3.1 5.5 6.2-2.1 0.4-4.9-0.9-6.8-3.2 0-0.1-0.1-0.1-0.1-0.2-0.1-0.1-0.2-0.2-0.4-0.2-0.1 0-0.2 0-0.3 0.1-1.2 0.7-2.5 1.2-3.7 1.3 1.2-2.8 3.5-4.1 5.7-3.9zm-6.4 6.6c0-0.6 0.2-1.1 0.3-1.7 1.4 0 2.8-0.5 4.2-1.2 1.8 2.1 4.7 3.9 7.5 3.5 0 4.1-2.3 5.8-2.5 6-5.1 3.9-10-1.2-9.6-6.5zm2.2 7.6c1.2 0.9 2.6 1.3 3.8 1.3 1.4 0 2.9-0.6 3.8-1.3 0 0.1 0 0.4 0.1 0.8v0.4c0 2.1-1.7 3.8-3.9 3.8-2.1 0-3.8-1.7-3.8-3.8 0 0 0 0.1 0-1.3zm11.4 3.8c2.5 0 4.5 2 4.5 4.5v3.6H9.4v-3.6c0-2.5 2-4.5 4.5-4.5 1 0 2-0.4 2.7-1.1 0.1-0.1 0.2-0.2 0.2-0.3 0.5 2.1 2.4 3.7 4.7 3.7 2.3 0 4.2-1.6 4.7-3.7 0.7 0.8 1.7 1.3 2.8 1.3zM8.9 2.4H58.2V17.2H46.5c-0.1 0-0.2 0-0.3 0.1l-7.5 5.1V17.7c0-0.3-0.2-0.5-0.5-0.5H27.1c1-1.5 1.4-3.3 1.4-5 0-4.5-2.9-7.9-6.5-8.2 0 0 0 0-0.1 0-4.1-0.3-7.2 3.3-7.5 7.5-0.2 1.8 0.3 4.1 1.4 5.8H8.9Z"/><path d="m55.8 6.3h-6.9v6.9h6.9zm-1 5.9H49.9V7.3h4.9z"/><path d="M46.4 6.3H39.5v6.9h6.9zm-1 5.9H40.5V7.3h4.9z"/><path d="M37 6.3H30.1v6.9h6.9zm-1 5.9H31.1V7.3h4.9z"/></g></svg>
