<svg xmlns="http://www.w3.org/2000/svg" width="96" height="96"><style>.a{fill:#fff;}</style><title>  Rocket</title><title>  background</title><rect height="602" width="802" y="-1" x="-1" fill="none"/><title>  Layer 1</title><g transform="matrix(1.4992866 0 0 1.4992866 0.00599279 0.02861617)"><path d="m45.5 25a6.5 6.5 0 1 0-4.6-1.9 6.5 6.5 0 0 0 4.6 1.9zm-3.2-9.7a4.5 4.5 0 1 1-1.3 3.2 4.5 4.5 0 0 1 1.3-3.2z" class="a"/><path d="m8.6 26.5l11 0.5c-0.2 0.4-0.4 0.8-0.5 1.2a1 1 0 0 0 0.2 1.1l2.2 2.2 -4.4 3.2a1 1 0 0 0-0.1 1.5l10.8 10.8a1 1 0 0 0 0.7 0.3l0.1 0a1 1 0 0 0 0.7-0.4l3.2-4.4 2.2 2.2a1 1 0 0 0 1.1 0.2l1.1-0.5 0.5 11a1 1 0 0 0 1.6 0.8 22.9 22.9 0 0 0 5-3.8 23.3 23.3 0 0 0 6.8-18.5 44.4 44.4 0 0 0 11.2-30.9 1 1 0 0 0-1-1 44.6 44.6 0 0 0-30.6 11l-0.3 0.3a23.3 23.3 0 0 0-18.5 6.8 22.9 22.9 0 0 0-3.8 4.9 1 1 0 0 0 0.8 1.5zm19.8 18.3l-9.2-9.2 3.8-2.7 8.1 8.1 -2.7 3.8zm14.1 6.2a21.2 21.2 0 0 1-3.1 2.6l-0.4-10.3c0.5-0.2 0.9-0.5 1.4-0.8 0.5-0.3 0.7-0.4 1.1-0.6 0.6-0.4 1.2-0.8 1.7-1.2 0.3-0.2 0.6-0.4 0.9-0.6q1.3-0.9 2.4-1.9l0.1 0q1.2-1 2.3-2.1a21.3 21.3 0 0 1-6.4 14.9zm17.5-47a42.4 42.4 0 0 1-11.1 28.9c-0.5 0.5-0.9 1-1.4 1.5l0 0a42.4 42.4 0 0 1-10 7.4c-0.6 0.3-1.2 0.6-1.8 0.9l-14.5-14.4c0.3-0.6 0.6-1.2 0.9-1.8l0 0a42.1 42.1 0 0 1 3.3-5.1l0.2-0.2q0.9-1.1 1.8-2.2l0.3-0.3c0.6-0.7 1.3-1.4 2-2.1l0 0c0.7-0.7 1.4-1.3 2.1-2a42.5 42.5 0 0 1 28.2-10.6zm-47 17.5a21.3 21.3 0 0 1 15-6.3l-0.2 0.2q-0.9 0.9-1.7 1.8l-0.4 0.4q-0.9 1.1-1.7 2.2l-0.1 0.2q-0.8 1.1-1.6 2.3l-0.1 0.2q-0.8 1.3-1.5 2.6l-10.3-0.5a21.2 21.2 0 0 1 2.6-3.1z" class="a"/><path d="m2.5 61.9a1 1 0 0 0 1 0.1 48.4 48.4 0 0 1 7.9-2.8 25.9 25.9 0 0 1 3.2-0.5c2.6-0.3 5.4-0.7 7-2.3a9.7 9.7 0 0 0 2.4-9.8 1 1 0 0 0-1.8-0.2 3.1 3.1 0 0 1-0.5 0.6c-0.6 0.6-1.9 0.7-3.1 0.9a17.3 17.3 0 0 0-1.7 0.3 12.6 12.6 0 0 0-1.8 0.6c0.2-2 0.8-4.7 2.2-6.1a3.1 3.1 0 0 1 0.5-0.8 1 1 0 0 0-0.2-1.8 9.7 9.7 0 0 0-9.9 2.4c-5.6 5.7-5.7 18-5.7 18.5a1 1 0 0 0 0.5 0.9zm6.6-18a7.7 7.7 0 0 1 5.5-2.3l0.5 0c-2.2 3-2.3 8.3-2.3 8.5a1 1 0 0 0 1.6 0.9 8.4 8.4 0 0 1 2.8-1.1c0.4-0.1 1-0.1 1.5-0.2a9.5 9.5 0 0 0 3.6-0.9 7.7 7.7 0 0 1-2.2 6c-1.2 1.2-3.5 1.5-5.8 1.8a27.4 27.4 0 0 0-3.4 0.6 54.9 54.9 0 0 0-6.8 2.2c0.2-3.4 1.1-11.5 5-15.5z" class="a"/></g></svg>
