<svg xmlns="http://www.w3.org/2000/svg" height="96" width="96" viewBox="0 0 96 96"><g transform="matrix(1.051365 0 0 1.051365 -2.4513266 -2.4660457)"><path d="m41.6 23.3c-11.2 0-20.3 9.1-20.3 20.3 0 11.2 9.1 20.3 20.3 20.3 11.2 0 20.3-9.1 20.3-20.3 0-11.2-9.1-20.3-20.3-20.3zm0 39.1c-10.4 0-18.8-8.4-18.8-18.8 0-10.4 8.4-18.8 18.8-18.8 10.4 0 18.8 8.4 18.8 18.8 0 10.4-8.4 18.8-18.8 18.8z"/><path d="m68.5 43.6c0-14.8-12.1-26.9-26.9-26.9-14.8 0-26.9 12.1-26.9 26.9 0 14.8 12.1 26.9 26.9 26.9 6.2 0 12.3-2.2 17.1-6.2L76.3 79.6 81.6 73.5 64.1 58.3c2.9-4.4 4.4-9.5 4.4-14.7zM79.4 73.7 76.1 77.5 58.7 62.4 58.2 62.8c-4.6 4-10.5 6.2-16.6 6.2-14 0-25.4-11.4-25.4-25.4 0-14 11.4-25.4 25.4-25.4 14 0 25.4 11.4 25.4 25.4 0 5.2-1.6 10.2-4.5 14.4l-0.4 0.6z"/><path d="m41.6 29.3v1.5c7 0 12.8 5.7 12.8 12.8h1.5c0-7.9-6.4-14.3-14.3-14.3z"/><path d="m28.1 86.3c-1.2 0-2.2 1-2.2 2.2 0 1.2 1 2.2 2.2 2.2 1.2 0 2.2-1 2.2-2.2 0-1.2-1-2.2-2.2-2.2zm0 4c-1 0-1.7-0.8-1.7-1.7 0-1 0.8-1.7 1.7-1.7 1 0 1.7 0.8 1.7 1.7 0 1-0.8 1.7-1.7 1.7z"/><path d="M6.4 33.9 8.4 32.9 10.4 33.9 10 31.7 11.6 30.1 9.4 29.8 8.4 27.8 7.4 29.8 5.2 30.1 6.8 31.7Zm-0.2-3.4 1.5-0.2 0.7-1.3 0.7 1.3 1.5 0.2-1.1 1 0.3 1.5-1.3-0.7-1.3 0.7 0.3-1.5z"/><path d="m26.8 11 1.4-0.7 1.4 0.7-0.3-1.5 1.1-1.1-1.5-0.2-0.7-1.4-0.7 1.4-1.5 0.2 1.1 1.1zm0.2-2.3 0.8-0.1 0.4-0.7 0.4 0.7 0.8 0.1-0.6 0.6 0.1 0.8-0.7-0.4-0.7 0.4 0.1-0.8z"/><path d="m84.8 68.1 1.1 1.1-0.3 1.5 1.4-0.7 1.4 0.7-0.3-1.5 1.1-1.1-1.5-0.2-0.7-1.4-0.7 1.4zm2.2-0.5 0.4 0.7 0.8 0.1-0.6 0.6 0.1 0.8-0.7-0.4-0.7 0.4 0.1-0.8-0.6-0.6 0.8-0.1z"/><path d="m87 14.1-0.9 2.8h-2.9l2.4 1.7-0.9 2.8 2.4-1.7 2.4 1.7-0.9-2.8 2.4-1.7h-2.9zm0.9 4.3 0.5 1.7-1.4-1-1.4 1 0.5-1.7-1.4-1h1.7l0.5-1.7 0.5 1.7h1.7z"/><path d="m79 9.8c1.2 0 2.2-1 2.2-2.2 0-1.2-1-2.2-2.2-2.2-1.2 0-2.2 1-2.2 2.2 0 1.2 1 2.2 2.2 2.2zm0-4c1 0 1.7 0.8 1.7 1.7 0 1-0.8 1.7-1.7 1.7-1 0-1.7-0.8-1.7-1.7 0-1 0.8-1.7 1.7-1.7z"/><path d="m86.7 49c0 1 0.8 1.8 1.8 1.8 1 0 1.8-0.8 1.8-1.8 0-1-0.8-1.8-1.8-1.8-1 0-1.8 0.8-1.8 1.8zM88.5 47.7c0.7 0 1.3 0.6 1.3 1.3 0 0.7-0.6 1.3-1.3 1.3-0.7 0-1.3-0.6-1.3-1.3 0-0.7 0.6-1.3 1.3-1.3z"/><path d="m14.8 19.5c1.3 0 2.4-1.1 2.4-2.4 0-1.3-1.1-2.4-2.4-2.4-1.3 0-2.4 1.1-2.4 2.4 0 1.3 1.1 2.4 2.4 2.4zm0-4.2c1 0 1.9 0.8 1.9 1.9 0 1-0.8 1.9-1.9 1.9-1 0-1.9-0.8-1.9-1.9 0-1 0.8-1.9 1.9-1.9z"/><path d="m22 88-0.1 0.5c0.3 0.1 0.7 0.2 1 0.2l0.1-0.5c-0.3-0.1-0.6-0.1-1-0.2z"/><path d="M7.7 75.7C7.9 76.3 8.2 76.9 8.5 77.5L8.9 77.3C8.6 76.7 8.4 76.1 8.2 75.5Z"/><path d="m6.5 68.9c0 0.3 0 0.7 0 1L7 69.8C7 69.5 7 69.2 7 68.9c0-0.3 0-0.7 0-1L6.6 67.8C6.5 68.2 6.5 68.5 6.5 68.9Z"/><path d="m9.4 79.3c0.3 0.6 0.7 1.1 1.1 1.7l0.4-0.3C10.5 80.1 10.2 79.5 9.8 79Z"/><path d="M7.6 73.6C7.5 73 7.3 72.4 7.2 71.7L6.7 71.8c0.1 0.7 0.2 1.3 0.4 2z"/><path d="M20.1 87.5C19.5 87.2 18.9 87 18.3 86.7l-0.2 0.5c0.6 0.3 1.2 0.5 1.8 0.8z"/><path d="m13.5 83.5c-0.5-0.4-0.9-0.9-1.4-1.4l-0.4 0.3c0.4 0.5 0.9 1 1.4 1.4z"/><path d="m14.7 85.1c0.5 0.4 1.1 0.8 1.7 1.1l0.3-0.4C16.1 85.5 15.5 85.1 15 84.7Z"/><path d="M7.4 64.9 6.9 64.9C6.9 65.2 6.8 65.5 6.8 65.8l0.5 0.1c0-0.3 0.1-0.6 0.2-1z"/><path d="m89.6 76-0.5 0c0 0.3 0 0.7-0.1 1l0.5 0c0-0.3 0.1-0.7 0.1-1z"/><path d="m86.1 85.1c0.5-0.6 0.9-1.2 1.3-1.8l-0.4-0.3c-0.4 0.6-0.8 1.2-1.3 1.7z"/><path d="m88 81.1 0.5 0.2c0.3-0.7 0.5-1.4 0.7-2.1l-0.5-0.1c-0.2 0.7-0.4 1.4-0.7 2z"/><path d="m80.5 88.4c-0.7 0.3-1.4 0.5-2.1 0.6l0.1 0.5c0.7-0.2 1.4-0.4 2.1-0.6z"/><path d="m84.2 86.2c-0.6 0.5-1.1 0.9-1.8 1.2l0.3 0.4c0.6-0.4 1.3-0.8 1.8-1.3z"/><path d="m76.3 89.8 0-0.5c-0.3 0-0.7 0-1 0l0 0.5c0.1 0 0.2 0 0.3 0 0.2 0 0.5 0 0.7 0z"/><rect x="88.3" y="28.4" width="0.5" height="2"/><rect x="88.3" y="32.4" width="0.5" height="2"/><rect x="88.3" y="36.4" width="0.5" height="2"/><rect x="88.3" y="40.4" width="0.5" height="2"/></g></svg>
