<?xml version="1.0" encoding="UTF-8"?>
<svg version="1.1" viewBox="0 0 96 96" xmlns="http://www.w3.org/2000/svg" xmlns:cc="http://creativecommons.org/ns#" xmlns:dc="http://purl.org/dc/elements/1.1/" xmlns:rdf="http://www.w3.org/1999/02/22-rdf-syntax-ns#">
<metadata>
<rdf:RDF>
<cc:Work rdf:about="">
<dc:format>image/svg+xml</dc:format>
<dc:type rdf:resource="http://purl.org/dc/dcmitype/StillImage"/>
<dc:title/>
</cc:Work>
</rdf:RDF>
</metadata>
<g transform="matrix(1.0465 0 0 1.0465 -4.3255 -1001)">
<path transform="translate(0 952.36)" d="m23 12c-0.30481 0-0.56935 0.15326-0.71875 0.3125l-14.719 15.688s-0.26577 0.25315-0.375 0.40625c-0.12223 0.17133-0.18969 0.38307-0.1875 0.59375v58c5.24e-5 0.52358 0.47642 0.99995 1 1h42 42c0.52358-1e-4 0.99995-0.4764 1-1v-58c0.00219-0.21068-0.06527-0.42242-0.1875-0.59375-0.10923-0.1531-0.375-0.40625-0.375-0.40625l-14.719-15.688c-0.1494-0.15923-0.41394-0.3125-0.71875-0.3125h-27zm0.40625 2h21.312l-3.5 14h-30.938zm23.375 0h3.2188 3.2188l3.5 14h-6.7188-6.7188zm8.5 0h21.312l13.125 14h-30.938zm-46.281 16h32v11c5.2e-5 0.52358 0.47642 0.99995 1 1h8 8c0.52358-5e-5 0.99995-0.47642 1-1v-11h32v56h-41-41zm34 0h7 7v10h-7-7zm19.906 25.969a1.0001 1.0001 0 0 0-0.125 0.03125 1.0001 1.0001 0 0 0-0.5 0.28125l-5 5a1.0055 1.0055 0 0 0 1.4375 1.4062l3.2812-3.2812v15.594a1.0001 1.0001 0 1 0 2 0v-15.594l3.2812 3.2812a1.0055 1.0055 0 0 0 1.4375-1.4062l-5-5a1.0001 1.0001 0 0 0-0.8125-0.3125zm16 0a1.0001 1.0001 0 0 0-0.625 0.3125l-5 5a1.0055 1.0055 0 1 0 1.4375 1.4062l3.2812-3.2812v15.594a1.0001 1.0001 0 1 0 2 0v-15.594l3.2812 3.2812a1.0055 1.0055 0 0 0 1.4375-1.4062l-5-5a1.0001 1.0001 0 0 0-0.5-0.28125 1.0001 1.0001 0 0 0-0.3125-0.03125zm-22.906 24.031c-0.554 0-1 0.446-1 1s0.446 1 1 1h30c0.554 0 1-0.446 1-1s-0.446-1-1-1z" color="#000000" overflow="visible"/>
</g>
</svg>
