<svg xmlns="http://www.w3.org/2000/svg" width="96" height="96"><style>.a{fill:#fff;}</style><title>  background</title><rect height="602" width="802" y="-1" x="-1" fill="none"/><title>  Layer 1</title><g transform="matrix(0.45 0 0 0.45 3 2.9997752)"><path d="m43 126c-9.6-7.7-15-19.1-15-31.4 0-22.2 18.1-40.3 40.3-40.3 16.7 0 31.9 10.5 37.8 26.2l-6 2.2c-5-13.1-17.8-22-31.8-22 -18.7 0-33.9 15.2-33.9 33.9 0 10.3 4.6 19.9 12.6 26.4l-4 5z" class="a"/><polygon points="168 183.7 162.4 186.8 105.3 84.1 63.8 158.9 58.1 155.8 105.3 70.8 " class="a"/><polygon points="56 110.3 13.5 186.8 7.9 183.7 56 97 76.2 133.4 70.6 136.5 " class="a"/><polygon points="192.1 183.7 186.5 186.8 156 132 146.8 148.6 141.2 145.5 156 118.8 " class="a"/><polygon points="94.6 122.2 105.3 111.5 116 122.2 124.5 113.7 129 118.3 116 131.3 105.3 120.6 94.6 131.3 81.6 118.3 86.2 113.7 " class="a"/><rect y="182" width="200" height="6.4" class="a"/><path d="m152.8 49l-50.7 0 0-37.4 50.7 0 -6.9 18.7 6.9 18.7zm-44.3-6.4l35 0 -4.5-12.3 4.5-12.3 -35 0 0 24.6z" class="a"/><rect x="102.1" y="14.8" width="6.4" height="62.7" class="a"/><rect x="127" y="77.2" width="18.8" height="6.4" class="a"/><rect x="136.4" y="56.7" width="26.5" height="6.4" class="a"/><rect x="170.5" y="56.7" width="10.5" height="6.4" class="a"/></g></svg>
