<?xml version="1.0" encoding="UTF-8" standalone="no"?>
<svg
   xmlns:dc="http://purl.org/dc/elements/1.1/"
   xmlns:cc="http://creativecommons.org/ns#"
   xmlns:rdf="http://www.w3.org/1999/02/22-rdf-syntax-ns#"
   xmlns:svg="http://www.w3.org/2000/svg"
   xmlns="http://www.w3.org/2000/svg"
   xmlns:sodipodi="http://sodipodi.sourceforge.net/DTD/sodipodi-0.dtd"
   xmlns:inkscape="http://www.inkscape.org/namespaces/inkscape"
   inkscape:version="1.0 (1.0+r73+1)"
   height="96"
   width="96"
   sodipodi:docname="product development.svg"
   id="svg22"
   xml:space="preserve"
   enable-background="new 0 0 132 132"
   viewBox="0 0 96 96"
   y="0px"
   x="0px"
   version="1.1"><metadata
     id="metadata28"><rdf:RDF><cc:Work
         rdf:about=""><dc:format>image/svg+xml</dc:format><dc:type
           rdf:resource="http://purl.org/dc/dcmitype/StillImage" /><dc:title></dc:title></cc:Work></rdf:RDF></metadata><defs
     id="defs26" /><sodipodi:namedview
     inkscape:current-layer="svg22"
     inkscape:window-maximized="1"
     inkscape:window-y="28"
     inkscape:window-x="0"
     inkscape:cy="53.778402"
     inkscape:cx="61.46137"
     inkscape:zoom="8.8606061"
     showgrid="false"
     id="namedview24"
     inkscape:window-height="1386"
     inkscape:window-width="2560"
     inkscape:pageshadow="2"
     inkscape:pageopacity="0"
     guidetolerance="10"
     gridtolerance="10"
     objecttolerance="10"
     borderopacity="1"
     bordercolor="#666666"
     pagecolor="#ffffff" /><g
     transform="matrix(0.7154213,0,0,0.7154213,0.7821942,0.7821942)"
     id="g16"><path
       id="path2"
       d="M 67.6,116.5 H 15.9 C 10,116.5 5.1,111.7 5.1,105.7 5.1,99.8 9.9,94.9 15.9,94.9 h 3.3 c 0,0 0,0 0,0 v 0 c 0.6,0 1,-0.4 1,-1 V 19.2 H 107 v -2 H 20.2 V 6.7 c 0,-0.6 -0.4,-1 -1,-1 H 15.9 C 8.7,5.7 3.1,11.6 3.1,18.5 v 87.2 c 0,0 0,0 0,0.1 0,7 5.8,12.7 12.8,12.7 H 67.6 Z M 5.1,18.5 C 5.1,12.7 9.8,7.7 15.9,7.7 h 2.3 c 0,76.7 0,85 0,85.2 h -2.3 c -4.5,0 -8.5,2.4 -10.8,5.9 V 18.5 Z" /><path
       id="path4"
       d="m 128.3,67.2 c -0.4,-0.2 -0.8,-0.1 -1.1,0.2 l -62.4,58.5 c -0.3,0.3 -0.4,0.7 -0.2,1.1 0.2,0.4 0.5,0.6 0.9,0.6 h 62.4 c 0.6,0 1,-0.4 1,-1 V 68.1 c 0,-0.4 -0.2,-0.7 -0.6,-0.9 z m -1.4,10.5 h -2.4 v 2 h 2.4 V 83 h -4.6 v 2 h 4.6 v 3.3 h -2.4 v 2 h 2.4 v 3.3 h -4.6 v 2 h 4.6 v 3.3 h -2.4 v 2 h 2.4 v 3.3 h -4.6 v 2 h 4.6 v 3.3 h -2.4 v 2 h 2.4 v 3.3 h -4.6 v 2 h 4.6 v 3.3 h -2.4 v 2 h 2.4 v 3.4 H 68.1 l 58.8,-55.2 z" /><path
       id="path6"
       d="m 86.7,118.2 c 0.2,0.4 0.5,0.6 0.9,0.6 H 117 c 0.6,0 1,-0.4 1,-1 V 89.9 c 0,-0.4 -0.2,-0.8 -0.6,-0.9 -0.4,-0.2 -0.8,-0.1 -1.1,0.2 L 87,117.1 c -0.3,0.3 -0.4,0.7 -0.3,1.1 z m 29.3,-26 v 24.6 H 90.2 Z" /><path
       id="path8"
       d="M 101.1,36.3 C 101,36 100.8,35.8 100.5,35.7 L 70.5,26 c -0.4,-0.1 -0.9,0 -1.2,0.4 l -4.7,8.1 -4.7,-8.1 C 59.7,26 59.2,25.8 58.7,26 l -30,9.7 c -0.3,0.1 -0.5,0.3 -0.6,0.6 -0.1,0.3 -0.1,0.6 0.1,0.9 l 5.3,9.1 -5.3,9.1 C 28,55.7 28,56 28.1,56.3 c 0.1,0.3 0.3,0.5 0.6,0.6 l 4.9,1.6 v 18 c 0,0.4 0.3,0.8 0.7,1 l 30,9.5 c 0.2,0.1 0.4,0.1 0.6,0 l 30,-9.7 c 0.4,-0.1 0.7,-0.5 0.7,-1 v -18 l 4.9,-1.6 c 0.3,-0.1 0.5,-0.3 0.6,-0.6 0.1,-0.3 0.1,-0.6 -0.1,-0.9 L 95.7,46.1 101,37 c 0.2,-0.1 0.2,-0.4 0.1,-0.7 z m -70.5,0.9 28,-9.1 4.5,7.8 -28,9.1 z m 0,18 4.5,-7.8 28,9.1 -4.6,7.8 C 55.7,63.4 69,67.7 30.6,55.2 Z m 33,29.4 -28,-9 V 59 l 23.1,7.5 c 0.5,0.2 1,-0.1 1.2,-0.4 l 3.7,-6.4 z m 1,-29.7 -26.7,-8.7 26.7,-8.7 26.7,8.7 z m 29,20.7 -28,9 v -25 l 3.7,6.4 c 0.2,0.4 0.7,0.6 1.2,0.4 L 93.6,59 Z m 5.1,-20.4 c -38.4,12.5 -25.1,8.2 -28,9.1 l -4.6,-7.8 28,-9.1 z M 94.1,45 l -28,-9.1 4.5,-7.8 28,9.1 z" /><rect
       id="rect10"
       height="2"
       width="25.799999"
       y="95"
       x="30.9" /><rect
       id="rect12"
       height="2"
       width="36.599998"
       y="103.3"
       x="30.9" /><path
       id="path14"
       d="m 119.7,65.6 c 0.4,0.6 1.3,0.6 1.7,0 6.7,-11.3 6.5,-10.7 6.5,-11.1 v 0 c 0,-13.2 0,-32 0,-45.9 0,-2.3 -1.9,-4.2 -4.2,-4.2 h -6.3 c -2.3,0 -4.2,1.9 -4.2,4.2 0,13.9 0,32.7 0,45.9 v 0 c 0.1,0.6 0.2,0.3 6.5,11.1 z m 0.9,-2.5 -4.6,-7.6 h 4.6 4.6 z m 5.3,-9.6 h -4.3 V 13.8 h 4.3 z M 115.3,8.6 c 0,-1.2 1,-2.2 2.2,-2.2 h 6.3 c 1.2,0 2.2,1 2.2,2.2 v 3.2 H 115.4 V 8.6 Z m 0,5.2 h 4.3 v 39.7 h -4.3 z" /></g></svg>
