<?xml version="1.0" encoding="UTF-8" standalone="no"?>
<svg
   xmlns:dc="http://purl.org/dc/elements/1.1/"
   xmlns:cc="http://creativecommons.org/ns#"
   xmlns:rdf="http://www.w3.org/1999/02/22-rdf-syntax-ns#"
   xmlns:svg="http://www.w3.org/2000/svg"
   xmlns="http://www.w3.org/2000/svg"
   xmlns:sodipodi="http://sodipodi.sourceforge.net/DTD/sodipodi-0.dtd"
   xmlns:inkscape="http://www.inkscape.org/namespaces/inkscape"
   inkscape:version="1.0 (1.0+r73+1)"
   height="96"
   width="96"
   sodipodi:docname="quality control.svg"
   id="svg36"
   xml:space="preserve"
   viewBox="0 0 96 96"
   y="0px"
   x="0px"
   version="1.1"><metadata
     id="metadata42"><rdf:RDF><cc:Work
         rdf:about=""><dc:format>image/svg+xml</dc:format><dc:type
           rdf:resource="http://purl.org/dc/dcmitype/StillImage" /><dc:title></dc:title></cc:Work></rdf:RDF></metadata><defs
     id="defs40" /><sodipodi:namedview
     inkscape:current-layer="svg36"
     inkscape:window-maximized="1"
     inkscape:window-y="28"
     inkscape:window-x="0"
     inkscape:cy="40"
     inkscape:cx="30.632011"
     inkscape:zoom="9.1375"
     showgrid="false"
     id="namedview38"
     inkscape:window-height="1386"
     inkscape:window-width="2560"
     inkscape:pageshadow="2"
     inkscape:pageopacity="0"
     guidetolerance="10"
     gridtolerance="10"
     objecttolerance="10"
     borderopacity="1"
     bordercolor="#666666"
     pagecolor="#ffffff" /><g
     transform="matrix(1.4515973,0,0,1.4515973,1.5492095,1.5493703)"
     id="g882"><path
       d="M 9.5,53 C 9.224,53 9,52.776 9,52.5 v -2 C 9,50.224 9.224,50 9.5,50 9.776,50 10,50.224 10,50.5 v 2 C 10,52.776 9.776,53 9.5,53 Z"
       id="path2" /><path
       d="M 48.5,57 H 9.5 C 9.224,57 9,56.776 9,56.5 9,56.224 9.224,56 9.5,56 H 48 V 2 H 17.707 L 10,9.707 V 47.5 C 10,47.776 9.776,48 9.5,48 9.224,48 9,47.776 9,47.5 V 9.5 C 9,9.367 9.053,9.24 9.146,9.146 l 8,-8 C 17.24,1.053 17.367,1 17.5,1 h 31 C 48.776,1 49,1.224 49,1.5 v 55 c 0,0.276 -0.224,0.5 -0.5,0.5 z"
       id="path4" /><path
       d="m 54.5,8 h -6 C 48.224,8 48,7.776 48,7.5 48,7.224 48.224,7 48.5,7 h 6 C 54.776,7 55,7.224 55,7.5 55,7.776 54.776,8 54.5,8 Z"
       id="path6" /><path
       d="m 54.5,63 h -39 C 15.224,63 15,62.776 15,62.5 v -6 c 0,-0.276 0.224,-0.5 0.5,-0.5 0.276,0 0.5,0.224 0.5,0.5 V 62 H 54 V 16.5 c 0,-0.276 0.224,-0.5 0.5,-0.5 0.276,0 0.5,0.224 0.5,0.5 v 46 c 0,0.276 -0.224,0.5 -0.5,0.5 z"
       id="path8" /><path
       d="m 17.5,10 h -8 C 9.298,10 9.115,9.878 9.038,9.691 8.96,9.505 9.003,9.289 9.146,9.146 l 8,-8 C 17.29,1.002 17.504,0.96 17.691,1.038 17.878,1.115 18,1.298 18,1.5 v 8 C 18,9.776 17.776,10 17.5,10 Z M 10.707,9 H 17 V 2.707 Z"
       id="path10" /><path
       d="M 54.5,14 C 54.224,14 54,13.776 54,13.5 v -2 c 0,-0.276 0.224,-0.5 0.5,-0.5 0.276,0 0.5,0.224 0.5,0.5 v 2 c 0,0.276 -0.224,0.5 -0.5,0.5 z"
       id="path12" /><path
       d="m 30.5,25 h -3 C 27.224,25 27,24.776 27,24.5 v -1.808 c -0.469,-0.139 -0.912,-0.319 -1.324,-0.54 l -1.272,1.272 C 24.31,23.518 24.183,23.57 24.05,23.57 v 0 c -0.133,0 -0.26,-0.053 -0.354,-0.146 l -2.122,-2.122 c -0.195,-0.195 -0.195,-0.512 0,-0.707 l 1.272,-1.272 C 22.626,18.911 22.445,18.469 22.306,18 H 20.5 C 20.224,18 20,17.776 20,17.5 v -3 C 20,14.224 20.224,14 20.5,14 h 1.814 c 0.135,-0.443 0.319,-0.88 0.551,-1.307 l -1.29,-1.289 c -0.094,-0.094 -0.146,-0.221 -0.146,-0.354 0,-0.133 0.053,-0.26 0.146,-0.354 l 2.122,-2.122 c 0.188,-0.188 0.52,-0.188 0.707,0 l 1.281,1.281 C 26.113,9.621 26.553,9.435 27,9.298 V 7.5 C 27,7.224 27.224,7 27.5,7 h 3 C 30.776,7 31,7.224 31,7.5 v 1.808 c 0.469,0.139 0.912,0.319 1.324,0.54 L 33.597,8.576 C 33.691,8.482 33.818,8.43 33.951,8.43 v 0 c 0.133,0 0.26,0.053 0.354,0.146 l 2.121,2.122 c 0.195,0.195 0.195,0.512 0,0.707 l -1.272,1.272 c 0.221,0.411 0.401,0.854 0.54,1.323 H 37.5 c 0.276,0 0.5,0.224 0.5,0.5 v 3 c 0,0.276 -0.224,0.5 -0.5,0.5 h -1.814 c -0.135,0.444 -0.319,0.882 -0.55,1.308 l 1.289,1.288 c 0.094,0.094 0.146,0.221 0.146,0.354 0,0.133 -0.053,0.26 -0.146,0.354 l -2.121,2.122 c -0.188,0.188 -0.52,0.188 -0.707,0 l -1.281,-1.281 c -0.428,0.235 -0.868,0.422 -1.315,0.559 V 24.5 C 31,24.776 30.776,25 30.5,25 Z M 28,24 h 2 v -1.681 c 0,-0.231 0.159,-0.433 0.385,-0.486 0.596,-0.142 1.184,-0.391 1.748,-0.74 0.198,-0.122 0.452,-0.094 0.617,0.071 l 1.201,1.2 1.414,-1.415 -1.207,-1.206 C 33.995,19.58 33.965,19.326 34.085,19.129 34.43,18.566 34.677,17.979 34.818,17.384 34.871,17.159 35.072,17 35.304,17 H 37 v -2 h -1.691 c -0.231,0 -0.432,-0.158 -0.486,-0.383 -0.155,-0.647 -0.397,-1.24 -0.72,-1.761 -0.121,-0.197 -0.092,-0.452 0.072,-0.616 l 1.189,-1.189 -1.414,-1.415 -1.19,1.189 c -0.165,0.164 -0.42,0.192 -0.616,0.072 -0.521,-0.322 -1.113,-0.564 -1.761,-0.72 C 30.158,10.123 30,9.923 30,9.691 V 8 h -2 v 1.681 c 0,0.231 -0.159,0.433 -0.385,0.486 -0.596,0.142 -1.184,0.391 -1.748,0.74 -0.197,0.123 -0.453,0.095 -0.617,-0.071 l -1.2,-1.2 -1.415,1.415 1.207,1.206 c 0.164,0.163 0.193,0.417 0.073,0.614 -0.346,0.565 -0.592,1.152 -0.733,1.744 C 23.129,14.841 22.928,15 22.696,15 H 21 v 2 h 1.691 c 0.231,0 0.432,0.158 0.486,0.384 0.155,0.646 0.397,1.238 0.719,1.76 0.122,0.197 0.092,0.452 -0.072,0.616 l -1.189,1.189 1.415,1.415 1.189,-1.189 c 0.163,-0.165 0.419,-0.194 0.616,-0.072 0.521,0.322 1.113,0.564 1.761,0.72 0.226,0.054 0.384,0.254 0.384,0.486 z m 1,-4 c -2.206,0 -4,-1.794 -4,-4 0,-2.206 1.794,-4 4,-4 2.206,0 4,1.794 4,4 0,2.206 -1.794,4 -4,4 z m 0,-7 c -1.654,0 -3,1.346 -3,3 0,1.654 1.346,3 3,3 1.654,0 3,-1.346 3,-3 0,-1.654 -1.346,-3 -3,-3 z"
       id="path14" /><path
       d="m 24.5,51 h -9 C 15.224,51 15,50.776 15,50.5 v -9 C 15,41.224 15.224,41 15.5,41 h 9 c 0.276,0 0.5,0.224 0.5,0.5 v 9 C 25,50.776 24.776,51 24.5,51 Z M 16,50 h 8 v -8 h -8 z"
       id="path16" /><path
       d="m 18.5,48 c -0.145,0 -0.288,-0.062 -0.387,-0.183 L 16.931,46.378 C 16.756,46.164 16.786,45.85 17,45.674 c 0.215,-0.175 0.529,-0.143 0.704,0.069 L 18.582,46.812 22.2,44.1 c 0.22,-0.167 0.534,-0.121 0.7,0.101 0.166,0.221 0.121,0.534 -0.1,0.7 l -4,3 C 18.71,47.968 18.605,48 18.5,48 Z"
       id="path18" /><path
       d="m 24.5,39 h -9 C 15.224,39 15,38.776 15,38.5 v -9 C 15,29.224 15.224,29 15.5,29 h 9 c 0.276,0 0.5,0.224 0.5,0.5 v 9 C 25,38.776 24.776,39 24.5,39 Z M 16,38 h 8 v -8 h -8 z"
       id="path20" /><path
       d="m 18.5,36 c -0.145,0 -0.288,-0.062 -0.387,-0.183 L 16.931,34.378 C 16.756,34.164 16.786,33.85 17,33.674 c 0.215,-0.176 0.529,-0.144 0.704,0.069 L 18.582,34.812 22.2,32.1 c 0.22,-0.166 0.534,-0.12 0.7,0.101 0.166,0.221 0.121,0.534 -0.1,0.7 l -4,3 C 18.71,35.968 18.605,36 18.5,36 Z"
       id="path22" /><path
       d="m 42.5,48 h -14 C 28.224,48 28,47.776 28,47.5 28,47.224 28.224,47 28.5,47 h 14 c 0.276,0 0.5,0.224 0.5,0.5 0,0.276 -0.224,0.5 -0.5,0.5 z"
       id="path24" /><path
       d="m 42.5,45 h -14 C 28.224,45 28,44.776 28,44.5 28,44.224 28.224,44 28.5,44 h 14 c 0.276,0 0.5,0.224 0.5,0.5 0,0.276 -0.224,0.5 -0.5,0.5 z"
       id="path26" /><path
       d="m 42.5,36 h -14 C 28.224,36 28,35.776 28,35.5 28,35.224 28.224,35 28.5,35 h 14 c 0.276,0 0.5,0.224 0.5,0.5 0,0.276 -0.224,0.5 -0.5,0.5 z"
       id="path28" /><path
       d="m 42.5,33 h -14 C 28.224,33 28,32.776 28,32.5 28,32.224 28.224,32 28.5,32 h 14 c 0.276,0 0.5,0.224 0.5,0.5 0,0.276 -0.224,0.5 -0.5,0.5 z"
       id="path30" /></g></svg>
