<svg xmlns="http://www.w3.org/2000/svg" height="96" width="96" viewBox="0 0 96 96"><g transform="matrix(0.60815756 0 0 0.60815756 11.67963 7.5404535)"><path d="M77.5 26.5H58c0 0 0 0 0 0h-12c0 0 0 0 0 0H26.4c-0.6 0-1 0.4-1 1v46.5c0 0.6 0.4 1 1 1h51.1c0.6 0 1-0.4 1-1V27.5c0-0.6-0.4-1-1-1zm-30.6 2h10v6.5h-2.6c-0.6 0-1 0.4-1 1V39H50.8c-0.6 0-1 0.4-1 1v2.5h-2.9zm-19.5 0h17.5v6H27.4ZM76.5 73H27.4V36.5h17.5v7c0 0.6 0.4 1 1 1h4.9c0.6 0 1-0.4 1-1V41h2.6c0.6 0 1-0.4 1-1v-3h2.6c0.4 0 0.7-0.2 0.8-0.5h17.7zm0-38.5H58.9v-6h17.5z"/><path d="m60 52.7c0.3 0 0.5-0.1 0.7-0.3l3.1-3.1v15.4c0 0.6 0.4 1 1 1 0.6 0 1-0.4 1-1V49.3l3.1 3.1c0.4 0.4 1 0.4 1.4 0 0.4-0.4 0.4-1 0-1.4L65.5 46.2c-0.2-0.2-0.4-0.3-0.7-0.3-0.3 0-0.5 0.1-0.7 0.3l-4.8 4.8c-0.4 0.4-0.4 1 0 1.4 0.2 0.2 0.5 0.3 0.7 0.3z"/></g><path d="M47.9 12.1C33.4 9.5 19.5 19.2 16.9 33.7 14.3 48.2 24.1 62.2 38.6 64.7 53.1 67.3 67 57.6 69.6 43.1 72.2 28.5 62.5 14.6 47.9 12.1Zm-9 50.7C25.5 60.4 16.5 47.5 18.9 34.1 21.3 20.6 34.1 11.6 47.6 14 61 16.4 70 29.3 67.7 42.7 65.3 56.2 52.4 65.2 38.9 62.8Z"/><path d="M78.1 44.6C81.5 25.4 68.7 7 49.4 3.5 30.2 0.1 11.8 13 8.4 32.2 5 51.4 17.9 69.8 37.1 73.2c8.1 1.4 16.4 0 23.6-4L79.9 93 88.1 86.3 69 62.7c4.8-5 7.9-11.3 9.1-18.1zm7.2 41.5-5.2 4.2L61.1 66.6 60.4 67.1C53.5 71.2 45.3 72.7 37.4 71.3 19.3 68.1 7.1 50.7 10.4 32.6 13.6 14.4 31 2.3 49.1 5.5 67.2 8.7 79.4 26.1 76.2 44.2 75 50.9 71.8 57.1 67 61.9l-0.6 0.6z"/></svg>
