<svg xmlns="http://www.w3.org/2000/svg" width="96" height="96"><style>.a{fill:#fff;}</style><title>  background</title><rect height="602" width="802" y="-1" x="-1" fill="none"/><title>  Layer 1</title><path d="m48 11.5c20.1 0 36.5 16.4 36.5 36.5 0 20.1-16.4 36.5-36.5 36.5 -20.1 0-36.5-16.4-36.5-36.5 0-20.1 16.4-36.5 36.5-36.5m0-6c-23.5 0-42.5 19-42.5 42.5 0 23.5 19 42.5 42.5 42.5 23.5 0 42.5-19 42.5-42.5 0-23.5-19-42.5-42.5-42.5z" class="a"/><path d="m72.3 33.2c-1.9 3.9-5.9 6.6-10.6 6.6 -6.5 0-11.8-5.3-11.8-11.8 0-4.5 2.6-8.5 6.3-10.5 -0.5 1.6-4.2 0.8-8.2 0.8 -16.4 0-29.7 13.3-29.7 29.7 0 16.4 13.3 29.7 29.7 29.7 16.4 0 29.7-13.3 29.7-29.7 0-4.2-0.9-8.2-2.4-11.8l-3-3zm-28 1.4c-2.8 0-5-2.3-5-5 0-2.8 2.3-5 5-5 2.8 0 5 2.3 5 5 0 2.8-2.3 5-5 5z" class="a"/></svg>
